<?xml version="1.0" standalone="no"?>
<!DOCTYPE svg PUBLIC "-//W3C//DTD SVG 20010904//EN"
 "http://www.w3.org/TR/2001/REC-SVG-20010904/DTD/svg10.dtd">
<svg version="1.0" xmlns="http://www.w3.org/2000/svg"
 width="128.000000pt" height="128.000000pt" viewBox="0 0 128.000000 128.000000"
 preserveAspectRatio="xMidYMid meet">
<metadata>
Created by potrace 1.14, written by Peter Selinger 2001-2017
</metadata>
<g transform="translate(0.000000,128.000000) scale(0.100000,-0.100000)"
fill="#000000" stroke="none">
<path d="M509 1276 c-2 -2 -29 -7 -59 -10 -136 -14 -298 -80 -370 -148 -81
-78 -80 -71 -80 -476 0 -404 0 -401 72 -473 71 -70 240 -138 393 -158 28 -3
118 -6 200 -5 127 1 167 5 258 27 130 32 223 77 283 134 74 73 74 71 74 461 0
241 -4 357 -12 386 -15 51 -96 135 -164 169 -50 25 -155 61 -209 71 -16 4 -41
9 -55 12 -29 6 -326 15 -331 10z m321 -141 c132 -25 120 -21 213 -66 51 -24
107 -79 107 -105 0 -20 -19 -56 -39 -72 -44 -35 -163 -86 -231 -98 -108 -20
-159 -25 -255 -23 -262 3 -495 91 -495 185 0 71 180 167 350 187 83 9 281 5
350 -8z m-540 -447 c117 -35 178 -42 345 -43 145 0 185 4 273 24 56 13 133 39
169 57 37 18 71 30 75 28 12 -8 10 -76 -3 -115 -17 -50 -45 -76 -124 -115
-111 -55 -220 -73 -410 -70 -126 3 -177 8 -239 25 -93 26 -181 68 -219 106
-24 25 -27 34 -27 100 l0 73 53 -27 c28 -15 77 -34 107 -43z m-11 -317 c43
-12 56 -15 111 -26 14 -3 36 -7 50 -11 56 -13 308 -12 395 1 109 16 214 48
274 82 l43 25 -4 -75 c-3 -62 -7 -80 -27 -100 -37 -41 -137 -89 -231 -112 -72
-18 -200 -27 -307 -22 -198 9 -353 57 -420 131 -32 35 -36 49 -34 127 l1 47
53 -27 c28 -15 72 -33 96 -40z"/>
</g>
</svg>
